<?xml version="1.0" standalone="no"?>
<!DOCTYPE svg PUBLIC "-//W3C//DTD SVG 20010904//EN"
 "http://www.w3.org/TR/2001/REC-SVG-20010904/DTD/svg10.dtd">
<svg version="1.0" xmlns="http://www.w3.org/2000/svg"
 width="1024.000000pt" height="1024.000000pt" viewBox="0 0 1024.000000 1024.000000"
 preserveAspectRatio="xMidYMid meet">

<g transform="translate(0.000000,1024.000000) scale(0.100000,-0.100000)"
fill="#000000" stroke="none">
<path d="M3322 7250 c0 -14 2 -19 5 -12 2 6 2 18 0 25 -3 6 -5 1 -5 -13z"/>
<path d="M7845 5200 c-95 -21 -156 -59 -320 -199 -111 -95 -736 -651 -940
-836 -360 -326 -507 -415 -786 -477 -99 -22 -123 -23 -509 -23 -310 0 -414 3
-442 13 -94 34 -105 142 -19 186 15 8 128 40 251 71 578 147 874 273 1032 442
66 71 90 124 96 209 6 97 -15 158 -79 228 -68 75 -129 101 -239 100 -75 0
-114 -8 -335 -71 -429 -123 -695 -177 -1200 -243 -740 -97 -924 -176 -1380
-595 -422 -388 -713 -668 -735 -707 -31 -55 -34 -144 -6 -203 13 -26 195 -217
530 -553 546 -548 563 -562 655 -562 67 1 108 19 197 86 244 185 417 263 654
294 41 5 302 10 580 10 822 1 1002 21 1278 142 240 105 410 242 697 563 306
342 1354 1562 1398 1628 111 164 43 379 -149 469 -67 31 -161 43 -229 28z"/>
</g>
</svg>
